<?xml version="1.0" standalone="no"?>
<!DOCTYPE svg PUBLIC "-//W3C//DTD SVG 20010904//EN"
 "http://www.w3.org/TR/2001/REC-SVG-20010904/DTD/svg10.dtd">
<svg version="1.0" xmlns="http://www.w3.org/2000/svg"
 width="1280.000000pt" height="876.000000pt" viewBox="0 0 1280.000000 876.000000"
 preserveAspectRatio="xMidYMid meet">
<metadata>
Created by potrace 1.15, written by Peter Selinger 2001-2017
</metadata>
<g transform="translate(0.000000,876.000000) scale(0.100000,-0.100000)"
fill="#000000" stroke="none">
<path d="M7165 8066 c-141 -33 -325 -115 -465 -209 -142 -95 -287 -253 -356
-387 -28 -55 -28 -55 -32 -288 -4 -243 6 -388 36 -490 14 -48 16 -96 13 -292
-3 -257 10 -389 50 -497 12 -32 23 -80 25 -108 15 -172 27 -262 50 -356 l26
-105 -25 -50 c-36 -71 -57 -160 -57 -243 0 -95 41 -263 85 -351 l35 -70 -49
-65 c-48 -62 -118 -176 -136 -220 -7 -18 -9 -18 -12 -2 -3 9 -8 17 -13 17 -21
0 -74 -237 -61 -272 4 -11 3 -60 -2 -111 -11 -120 -2 -413 17 -502 8 -38 23
-95 34 -125 13 -34 23 -95 27 -160 8 -127 28 -245 54 -323 l19 -58 -29 -60
c-43 -89 -62 -180 -56 -269 13 -184 95 -390 204 -509 69 -77 200 -166 309
-209 184 -74 467 -72 839 7 93 20 153 47 148 68 -5 16 -84 207 -88 212 -3 2
-38 -10 -78 -27 -129 -54 -258 -76 -452 -76 -144 -1 -184 3 -260 22 -244 61
-435 218 -527 432 -15 36 -28 72 -28 81 0 9 27 46 60 82 l61 66 63 -49 c124
-93 220 -115 501 -114 335 2 610 31 754 79 125 41 184 167 196 414 l8 153 -51
47 c-55 52 -138 99 -221 126 l-54 17 48 41 c57 49 135 165 165 245 13 34 27
111 36 192 8 74 16 145 19 157 7 29 -71 107 -146 147 -30 16 -56 30 -57 32 -2
1 21 33 50 71 111 138 129 193 153 449 l7 71 -53 47 c-65 58 -186 117 -304
148 -125 32 -389 32 -543 -1 -132 -28 -249 -70 -348 -127 -43 -24 -84 -42 -91
-40 -36 14 -149 210 -158 276 -5 32 0 41 54 100 l59 64 45 -37 c65 -53 160
-95 258 -114 70 -13 129 -15 354 -10 303 7 410 17 570 52 136 31 177 57 222
141 45 84 60 156 68 310 l6 132 -33 38 c-46 52 -136 109 -216 135 -37 12 -69
23 -71 25 -2 2 11 16 30 31 73 62 142 161 179 260 17 47 50 275 50 351 0 33
-78 108 -153 148 l-55 28 46 52 c56 64 119 166 132 214 5 19 16 98 25 175 l16
140 -56 52 c-65 61 -165 112 -285 145 -76 20 -107 23 -285 22 -168 0 -215 -3
-291 -21 -337 -79 -559 -241 -699 -511 -20 -38 -30 -50 -36 -40 -15 23 -38
111 -57 221 l-19 108 50 72 c74 106 227 255 334 325 249 163 559 205 717 97
21 -14 39 -25 40 -23 2 2 12 73 23 158 24 178 25 173 -60 211 -65 28 -212 35
-302 15z m418 -901 c133 -23 293 -87 367 -145 l25 -20 -30 -26 c-102 -87 -219
-157 -355 -214 -57 -24 -105 -35 -200 -46 -146 -16 -248 -40 -355 -83 -87 -35
-151 -39 -275 -17 -112 20 -172 50 -230 113 -28 30 -50 60 -50 66 1 29 224
179 385 260 224 112 485 153 718 112z m-1052 -734 c33 -16 80 -33 105 -37 24
-3 44 -8 44 -10 0 -2 -17 -26 -37 -53 -21 -27 -60 -93 -87 -145 -27 -52 -52
-93 -56 -91 -20 12 -67 218 -94 409 l-5 39 35 -41 c19 -22 62 -54 95 -71z
m1149 -26 c81 -21 214 -84 260 -123 l35 -30 -30 -32 c-59 -64 -162 -133 -290
-196 -221 -108 -444 -170 -655 -181 -201 -10 -325 26 -413 120 l-49 51 44 38
c215 188 430 306 653 359 102 24 344 21 445 -6z m-992 -773 l73 -17 -66 -55
c-36 -30 -70 -56 -74 -58 -8 -3 -64 124 -77 172 l-7 28 39 -26 c22 -14 72 -34
112 -44z m1087 -93 c79 -20 188 -71 234 -110 23 -19 23 -20 5 -40 -51 -57
-239 -126 -430 -160 -150 -26 -391 -36 -503 -20 -103 14 -203 43 -255 75 l-39
23 59 40 c115 78 301 160 440 192 148 35 351 35 489 0z m-315 -913 c89 -14
238 -55 268 -75 10 -6 -11 -15 -65 -29 -208 -56 -432 -63 -608 -21 -62 15
-155 51 -155 59 0 9 137 47 235 65 95 18 211 18 325 1z m-713 -223 c93 -63
234 -129 313 -144 82 -17 391 -16 479 0 34 7 65 10 67 8 3 -2 -39 -23 -93 -45
-83 -35 -116 -43 -213 -53 -128 -12 -269 -46 -355 -84 -127 -56 -387 -16 -482
74 -25 24 -73 85 -73 94 0 17 258 197 282 197 4 0 38 -21 75 -47z m-323 -507
c39 -23 79 -37 139 -50 l28 -7 -34 -47 c-19 -26 -58 -92 -87 -147 -29 -55 -53
-101 -55 -103 -15 -16 -95 339 -95 422 l0 27 31 -36 c18 -20 50 -46 73 -59z
m1146 -31 c36 -8 90 -25 120 -37 72 -28 190 -104 190 -122 0 -17 -55 -67 -140
-128 -141 -99 -387 -202 -602 -250 -85 -19 -132 -23 -268 -23 -148 0 -172 2
-235 24 -54 19 -81 36 -122 77 -29 29 -53 57 -53 63 0 18 172 154 284 225 161
101 256 140 424 177 103 22 296 19 402 -6z m-1057 -745 c33 -16 81 -32 108
-36 27 -4 49 -9 49 -11 0 -3 -12 -15 -27 -26 -16 -12 -47 -39 -70 -60 -23 -21
-43 -34 -46 -30 -18 29 -80 193 -74 193 1 0 28 -14 60 -30z m1182 -125 c77
-22 171 -66 219 -104 l37 -30 -43 -32 c-192 -142 -743 -218 -1033 -143 -65 17
-165 62 -165 75 0 15 122 91 224 140 100 47 233 91 331 109 81 14 360 5 430
-15z"/>
<path d="M10715 7980 c-165 -30 -301 -101 -433 -224 -140 -131 -232 -368 -232
-596 0 -94 20 -175 65 -263 l35 -67 -20 -100 c-12 -60 -22 -159 -26 -252 -3
-84 -12 -178 -20 -208 -38 -145 -42 -384 -9 -618 12 -86 12 -102 -3 -156 -14
-50 -17 -105 -16 -296 1 -258 15 -411 43 -474 10 -23 39 -68 64 -101 l47 -60
-37 -30 c-128 -103 -213 -233 -273 -420 -30 -95 -32 -106 -27 -217 2 -65 9
-123 15 -130 5 -7 15 -31 22 -54 11 -38 10 -47 -23 -130 -31 -77 -87 -308 -87
-359 0 -10 -13 -45 -30 -79 -64 -132 -93 -276 -110 -549 -9 -139 -14 -172 -39
-237 -51 -132 -88 -368 -97 -610 l-6 -145 41 -83 c101 -206 250 -363 481 -505
244 -150 512 -196 614 -104 l25 22 -6 156 -6 157 -56 -27 c-51 -24 -67 -26
-176 -26 -100 0 -132 4 -190 24 -249 84 -456 258 -604 507 l-61 102 29 104
c31 111 67 207 82 223 6 6 12 1 16 -14 15 -58 105 -222 158 -288 186 -234 561
-393 923 -393 192 0 382 57 474 141 l36 34 -6 170 -7 170 -38 79 c-20 43 -53
101 -73 127 l-36 49 29 11 c61 23 118 56 160 93 l44 38 -6 174 c-4 133 -10
186 -25 229 -28 82 -78 171 -127 225 l-43 48 69 17 c92 22 176 63 230 112 l45
39 0 185 c1 172 -1 188 -23 244 -14 35 -41 77 -65 101 -35 35 -59 47 -155 78
-340 110 -914 168 -1064 108 -31 -13 -80 -39 -108 -58 -28 -19 -52 -34 -54
-34 -7 0 -105 150 -105 162 0 7 21 49 46 93 78 133 238 271 355 306 34 11 41
9 122 -40 93 -56 237 -118 356 -153 62 -18 101 -23 211 -23 120 0 141 3 186
23 28 13 65 38 81 55 40 42 135 226 128 247 -7 21 -31 32 -160 75 -116 38
-268 76 -410 100 -120 21 -288 17 -382 -10 l-63 -18 -70 57 c-39 32 -104 96
-146 144 l-75 87 6 85 c7 89 32 236 44 258 5 8 24 -14 56 -64 191 -302 513
-449 944 -431 243 10 440 80 568 200 l65 63 -16 109 c-33 217 -62 283 -173
397 l-55 56 23 12 c50 26 125 89 151 126 l27 39 -25 155 c-28 173 -51 235
-127 337 -25 34 -66 76 -91 95 -25 18 -45 35 -46 38 0 3 26 16 58 28 76 31
157 87 205 145 l39 46 -16 157 c-15 147 -18 163 -56 240 -65 134 -113 159
-352 184 -193 20 -650 5 -791 -26 -97 -21 -203 -75 -260 -130 l-46 -46 -28 22
c-15 12 -47 43 -70 70 l-43 48 21 63 c113 345 413 539 833 539 141 0 280 -20
384 -56 40 -14 75 -24 77 -22 6 5 75 216 75 227 0 20 -57 40 -141 51 -46 6
-102 15 -124 20 -22 5 -123 12 -225 15 -157 4 -201 2 -295 -15z m409 -961
c150 -11 290 -36 381 -68 59 -21 140 -64 150 -81 10 -16 -126 -108 -207 -140
-218 -85 -520 -76 -768 22 -79 31 -201 92 -230 116 l-24 20 48 31 c102 64 241
96 486 110 14 0 88 -4 164 -10z m-787 -390 c37 -29 67 -55 65 -58 -1 -3 -21
-11 -45 -17 -47 -12 -122 -48 -132 -64 -14 -23 -26 -9 -20 23 8 36 55 167 61
167 1 0 34 -23 71 -51z m638 -299 c149 -30 330 -91 447 -152 95 -50 222 -142
216 -158 -8 -22 -112 -95 -183 -130 -124 -61 -234 -84 -395 -84 -145 1 -240
18 -375 68 -98 38 -275 137 -377 213 -99 74 -98 71 -27 148 44 48 127 89 222
110 91 21 332 14 472 -15z m-775 -262 c0 -16 107 -186 147 -232 l33 -40 -43
-11 c-67 -17 -149 -68 -182 -113 -37 -50 -45 -52 -40 -9 3 17 9 84 15 147 12
120 46 270 61 270 5 0 9 -5 9 -12z m543 -489 c97 -33 191 -48 332 -55 144 -6
225 -27 371 -94 84 -39 189 -105 214 -135 13 -15 10 -20 -20 -46 -61 -50 -229
-128 -335 -155 -124 -32 -297 -42 -415 -25 -184 27 -411 118 -591 236 l-101
66 17 27 c59 92 119 137 225 169 124 36 219 40 303 12z m-63 -1839 c286 -35
587 -138 704 -241 56 -49 56 -50 -49 -100 -206 -96 -530 -74 -800 56 -130 63
-325 197 -325 224 0 14 72 41 145 55 86 17 213 19 325 6z m-540 -366 c0 -1
-28 -4 -63 -6 -35 -3 -85 -15 -112 -27 -26 -12 -50 -20 -51 -18 -4 4 73 156
88 174 8 10 25 -2 74 -54 35 -38 64 -69 64 -69z m235 -250 c289 -50 660 -236
833 -418 39 -42 72 -80 72 -85 0 -14 -149 -86 -220 -107 -53 -15 -97 -19 -230
-18 -149 0 -174 3 -255 27 -125 38 -293 123 -400 204 -106 81 -272 236 -280
264 -8 25 3 38 68 83 95 65 232 82 412 50z m-511 -261 c10 -28 38 -94 64 -146
l47 -94 -68 -11 c-77 -14 -130 -38 -182 -83 l-35 -31 7 34 c3 18 23 93 45 166
40 139 84 241 98 226 4 -5 15 -32 24 -61z m312 -483 c51 -7 95 -21 154 -50
106 -54 196 -84 328 -111 89 -17 123 -30 205 -76 117 -65 237 -154 297 -219
41 -45 42 -48 24 -61 -29 -22 -99 -51 -194 -81 -79 -24 -99 -26 -270 -26 -157
0 -196 4 -261 21 -173 48 -308 115 -480 239 -90 65 -239 200 -239 217 0 6 22
32 49 58 82 79 220 111 387 89z"/>
<path d="M1910 7239 c-193 -29 -480 -176 -643 -329 -89 -83 -156 -169 -208
-265 l-42 -78 -5 -146 c-7 -240 19 -526 58 -626 8 -20 12 -104 10 -257 -1
-248 12 -367 56 -489 15 -42 29 -116 39 -210 14 -136 44 -279 66 -321 8 -14 4
-33 -17 -76 -58 -125 -68 -252 -33 -406 25 -108 99 -267 162 -347 77 -96 245
-206 387 -252 148 -49 474 -38 720 23 41 10 93 21 116 25 44 7 104 38 104 55
0 13 -80 202 -89 213 -4 4 -37 -6 -73 -23 -35 -17 -116 -42 -179 -57 -103 -25
-132 -27 -299 -27 -217 0 -285 14 -439 90 -78 39 -110 62 -181 133 -72 71 -95
102 -134 180 -25 51 -46 102 -46 113 0 20 17 44 86 120 l33 37 33 -30 c40 -37
135 -87 203 -106 112 -32 540 -25 815 13 128 17 286 58 320 82 38 28 86 105
108 174 15 46 22 105 27 215 l7 151 -44 42 c-68 67 -113 92 -268 146 -11 4 -2
17 33 49 59 56 118 146 151 233 20 51 30 105 40 221 9 88 11 161 6 170 -19 35
-142 127 -193 144 -5 1 16 36 48 77 96 124 114 174 132 356 l15 156 -33 35
c-213 220 -765 245 -1154 50 -193 -96 -305 -207 -415 -409 l-39 -72 -11 29
c-19 49 -48 165 -61 243 l-12 72 46 68 c171 250 387 410 645 477 143 38 280
29 381 -26 30 -16 55 -28 57 -26 5 6 34 243 34 282 0 38 -4 45 -33 63 -73 42
-177 57 -287 41z m330 -899 c47 -6 119 -20 160 -31 77 -20 250 -100 270 -124
24 -28 -193 -179 -368 -255 -67 -29 -110 -40 -191 -49 -129 -15 -264 -49 -360
-90 -63 -27 -85 -31 -160 -31 -104 0 -201 20 -269 54 -48 24 -132 107 -132
130 0 16 149 131 244 189 172 104 300 157 456 191 132 28 219 32 350 16z
m-995 -760 c23 -11 66 -25 96 -31 l56 -11 -41 -62 c-23 -33 -61 -101 -86 -151
l-44 -89 -23 49 c-20 46 -62 232 -79 350 l-7 50 44 -43 c24 -23 62 -51 84 -62z
m1085 6 c47 -8 108 -22 135 -31 59 -20 170 -78 203 -105 22 -18 22 -21 8 -43
-39 -58 -195 -167 -344 -238 -335 -160 -720 -213 -919 -128 -45 19 -143 104
-143 123 0 18 157 149 261 217 279 185 530 249 799 205z m-899 -802 c27 -4 51
-9 53 -13 1 -3 -28 -32 -66 -64 l-68 -58 -35 73 c-19 40 -37 85 -40 99 l-7 27
57 -29 c31 -16 79 -32 106 -35z m954 -54 c151 -16 279 -61 359 -125 l28 -22
-46 -36 c-122 -93 -407 -167 -704 -183 -174 -10 -374 23 -462 77 l-34 21 28
23 c148 118 419 225 618 244 118 12 114 12 213 1z"/>
<path d="M4460 5644 c-234 -50 -435 -147 -542 -262 -45 -48 -46 -50 -53 -133
-7 -98 7 -240 30 -295 13 -31 15 -59 10 -139 -7 -106 10 -215 41 -262 8 -13
19 -56 24 -96 5 -41 18 -99 30 -130 l21 -55 -31 -48 c-23 -36 -30 -60 -30 -96
0 -55 29 -139 64 -187 l25 -33 -72 -71 c-40 -39 -79 -71 -87 -72 -28 0 -48
-83 -49 -199 -1 -59 -3 -111 -5 -115 -9 -16 17 -138 39 -183 14 -27 25 -66 25
-86 1 -49 16 -116 39 -162 18 -37 18 -38 -4 -66 -54 -72 -58 -152 -11 -248 41
-84 111 -150 208 -196 142 -68 216 -82 423 -83 175 0 398 21 473 44 l32 11
-22 37 c-52 86 -44 82 -124 61 -167 -43 -420 -50 -591 -14 -159 33 -290 107
-351 199 -35 54 -35 57 27 99 l39 27 49 -24 c98 -49 127 -52 458 -51 334 0
508 16 569 52 17 10 45 36 62 59 27 35 32 52 38 123 6 72 4 84 -11 96 -34 26
-118 62 -176 74 l-57 13 32 20 c43 25 104 84 128 122 10 17 23 59 30 95 6 36
13 73 16 82 4 12 -9 25 -48 47 -29 17 -65 33 -80 37 -26 5 -40 24 -19 24 5 0
34 25 64 55 58 58 59 62 83 197 l6 38 -73 34 c-116 55 -214 71 -419 70 -198
-1 -309 -17 -456 -65 l-94 -31 -34 25 c-30 23 -97 111 -96 126 0 3 21 21 45
40 l45 34 58 -26 c114 -51 127 -52 457 -51 329 2 493 17 564 51 20 10 50 39
67 64 26 39 32 60 37 125 5 66 3 80 -11 91 -36 29 -97 55 -165 72 l-72 18 40
21 c40 20 113 91 133 128 10 20 32 136 32 172 0 15 -16 28 -62 51 -33 17 -67
31 -75 31 -22 0 -16 9 46 65 32 30 63 67 69 82 16 42 33 156 24 164 -4 4 -30
19 -58 33 -140 70 -391 94 -637 61 -234 -31 -388 -95 -506 -211 -53 -52 -77
-70 -83 -61 -21 32 -50 151 -41 166 23 37 145 124 238 171 139 68 231 91 390
97 112 4 138 2 190 -15 33 -11 60 -20 60 -19 1 1 8 37 17 79 17 86 16 87 -41
107 -46 15 -231 13 -311 -5z m390 -444 c102 -13 199 -36 260 -62 l45 -19 -25
-19 c-64 -49 -321 -130 -412 -130 -74 0 -179 -15 -283 -42 -88 -22 -205 -19
-305 7 -54 14 -130 58 -130 75 0 14 151 83 271 123 201 68 391 90 579 67z
m-821 -371 c28 -10 64 -19 79 -19 41 0 45 -9 13 -36 -16 -13 -46 -46 -67 -74
l-38 -50 -17 28 c-17 26 -59 163 -59 191 0 11 4 11 19 -3 10 -9 42 -26 70 -37z
m942 -24 c41 -9 101 -28 134 -43 l60 -28 -65 -37 c-260 -145 -815 -216 -990
-127 -69 35 -68 44 3 84 77 44 229 106 314 129 170 48 381 56 544 22z m-890
-365 c10 -6 45 -14 76 -18 l56 -7 -53 -33 c-29 -18 -54 -31 -55 -30 -2 2 -14
21 -29 42 -36 54 -35 67 5 46z m951 -70 c64 -13 163 -53 162 -65 -3 -18 -157
-63 -279 -81 -167 -25 -471 -26 -575 -1 -41 10 -81 21 -88 26 -33 20 251 111
408 131 84 10 300 5 372 -10z m-159 -476 c48 -9 87 -20 87 -24 0 -9 -120 -27
-245 -36 -96 -7 -267 8 -350 30 l-50 13 55 11 c162 34 335 36 503 6z m-673
-94 c131 -67 322 -96 535 -81 66 5 121 8 123 6 11 -10 -121 -38 -223 -46 -65
-5 -162 -19 -215 -32 -108 -25 -262 -28 -347 -8 -52 13 -143 63 -143 79 0 9
15 17 130 68 88 40 89 40 140 14z m-221 -270 c20 -5 44 -10 53 -10 47 0 45
-11 -8 -68 -30 -31 -56 -64 -60 -74 -8 -27 -20 -22 -40 20 -15 33 -54 163 -54
184 0 4 16 -4 36 -17 20 -14 53 -29 73 -35z m921 -17 c41 -8 101 -26 134 -41
54 -24 57 -27 40 -40 -154 -115 -631 -220 -878 -192 -91 11 -173 39 -200 69
-15 16 -11 20 51 55 146 81 333 143 503 166 82 11 252 3 350 -17z m-850 -374
c19 -4 48 -11 64 -14 l30 -6 -54 -30 c-29 -16 -54 -28 -55 -27 -15 17 -55 83
-55 90 0 6 8 7 18 3 9 -4 33 -11 52 -16z m922 -64 c36 -7 90 -24 119 -36 l53
-23 -53 -24 c-165 -75 -637 -106 -836 -55 -38 10 -69 23 -69 28 2 14 154 70
259 95 170 41 376 47 527 15z"/>
</g>
</svg>
